<?xml version="1.0" encoding="UTF-8" standalone="no"?>
<svg width="70px" height="68px" viewBox="0 0 70 68" version="1.1" xmlns="http://www.w3.org/2000/svg" xmlns:xlink="http://www.w3.org/1999/xlink" xmlns:sketch="http://www.bohemiancoding.com/sketch/ns">
    <!-- Generator: Sketch 3.1 (8751) - http://www.bohemiancoding.com/sketch -->
    <title>light_bolt</title>
    <desc>Created with Sketch.</desc>
    <defs></defs>
    <g id="Page-1" stroke="none" stroke-width="1" fill="none" fill-rule="evenodd" sketch:type="MSPage">
        <g id="light_bolt" sketch:type="MSLayerGroup" transform="translate(34.500000, 34.500000) scale(1, -1) translate(-34.500000, -34.500000) translate(0.000000, 1.000000)" fill="#000000">
            <g id="Page-1" sketch:type="MSShapeGroup">
                <g id="Main-Page">
                    <path d="M39.68,20.62442 C39.73,21.95816 41.289333,27.15242 42.08,30.64263 C42.740667,33.55788 43.363333,35.22489 44.16,38.39867 C44.348,39.146 45.217333,41.07491 45.44,42.11511 C45.862,44.08644 45.605333,43.93226 47.52,42.92303 C49.716,41.76568 52.743333,39.48398 55.04,38.56026 C55.585333,38.34077 56.147333,38.48687 56.48,38.23709 C56.834,37.97115 56.469333,37.75099 56.8,37.26758 C57.401333,36.38762 59.912,35.73994 60.64,36.1365 C60.556667,36.09139 61.918667,37.58873 61.92,37.59075 C62.246,38.07685 62.290667,39.05646 62.4,39.36818 C62.29,39.05444 62.74,39.96739 62.56,39.85293 C63.018667,40.14513 62.780667,39.34327 62.72,39.85293 C62.633333,40.58343 63.300667,41.5765 63.52,42.43828 C64.062,44.5685 65.080667,48.65725 65.76,51.00224 C65.855333,51.33079 65.977333,51.78996 66.08,51.97174 C66.228,52.23499 66.654667,52.26192 66.72,52.4565 C66.792667,52.67531 66.528667,53.22065 66.56,53.426 C66.671333,54.1565 67.100667,55.15697 67.36,56.01135 C68.012667,58.16042 68.811333,60.75586 69.12,62.31313 C69.236667,62.90089 69.450667,64.34842 69.28,64.73689 C69.497333,64.24339 68.741333,65.10517 68.32,65.22164 C68.692667,65.53673 68.714,66.84287 68.8,66.19115 C69.264667,67.24481 68.162667,66.58838 68.32,66.51432 C67.984,66.67186 67.484667,67.58885 66.24,67.16065 C65.05,66.75063 63.772667,64.24137 62.72,63.12105 C60.977333,61.26687 58.554667,58.85254 57.12,57.14244 C56.464,56.3601 55.156667,54.89844 54.88,54.88026 C54.296667,54.84188 51.542,57.41713 49.92,58.27353 C48.484,59.03162 46.78,59.9136 45.92,60.69729 C44.772,61.7422 41.297333,64.22858 40.32,61.34362 C39.818667,61.45539 40.111333,61.77452 40.16,62.15155 C39.729333,62.14077 39.390667,61.78192 39.68,61.50521 C39.172667,61.85463 39.184667,62.72921 38.08,62.47471 C37.639333,62.18319 38.806,62.13269 38.56,62.31313 C38.149333,62.61408 39.178667,61.15376 39.04,61.82838 C39.2,61.05008 38.595333,60.84271 38.56,60.69729 C38.500667,60.4502 38.723333,60.25966 38.72,60.05095 C38.698667,58.62026 37.462667,57.46291 36.96,56.17293 C36.752,55.64038 36.861333,54.89372 36.64,54.39551 C36.362667,53.77004 36.073333,53.13313 35.84,52.61808 C35.696,52.3003 35.510667,51.60145 35.36,51.32541 C35.354667,51.31598 34.885333,51.17931 34.88,51.16382 C34.678667,50.56933 35.088,50.1216 34.88,49.87115 C34.222667,49.08006 34.229333,48.2378 33.28,46.96263 C33.260667,46.63475 33.751333,46.99226 33.76,46.96263 C33.726667,47.07776 33.575333,46.07796 33.44,45.83155 C33.328667,45.62889 32.789333,45.48077 32.8,45.50838 C32.637333,45.09499 32.764,44.47895 32.64,44.05412 C31.576667,40.41444 29.162,37.42984 28.32,34.35907 C28.452,35.05119 27.935333,34.73341 27.52,35.16699 C27.329333,35.36628 27.592,35.71772 27.52,35.81333 C27.336,36.05705 27.39,35.67935 27.2,35.81333 C25.598,36.9397 24.447333,40.73087 23.36,41.46877 C21.802667,42.52513 21.576,41.44454 20.48,41.46877 C19.213333,41.49705 19.084667,41.99123 18.24,40.1761 C17.597333,38.79388 16.131333,36.69396 15.04,34.68224 C12.393333,29.80374 9.276,24.12743 6.72,17.55432 C6.525333,17.05273 5.974667,14.94675 5.6,13.99947 C4.586,11.43701 3.410667,8.81059 2.56,6.24343 C2.421333,5.826 1.959333,5.72232 1.76,5.27392 C1.585333,4.88073 1.476,3.5618 1.44,3.17333 C1.441333,3.1841 1.217333,3.35444 1.28,3.4965 C0.82,2.44822 0.017333,0.54893 0,0.58798 C0.238667,0.0561 3.17,-0.13982 3.84,0.10323 C5.587333,0.73745 7.671333,4.0001 9.28,5.92026 C11.419333,8.47396 12.9,10.86339 14.72,13.19155 C14.84,13.34572 14.772,13.45614 14.88,13.6763 C15.256667,14.44248 16.492667,15.1144 17.12,15.77689 C17.196667,15.85836 17.038667,16.18624 17.12,16.26164 C17.254,16.38553 17.624667,16.29261 17.76,16.42323 C18.016,16.67099 17.980667,17.1719 18.24,17.39273 C18.626667,17.72129 19.309333,17.71388 19.68,18.03907 C20.956667,19.15804 22.876,21.55622 23.84,22.72501 C24.108667,23.05087 24.403333,24.25467 25.28,24.17927 C25.861333,24.12945 27.704667,21.53198 28.64,20.62442 C29.888667,19.41321 31.362667,17.91856 32.16,17.23115 C32.248667,17.1544 32.557333,17.31396 32.64,17.23115 C33.076,16.7942 33.088667,16.15729 33.76,15.93848 C34.074,15.83614 34.071333,15.29753 34.08,15.29214 C34.787333,14.83095 35.938667,14.65927 36.48,14.80739 C36.586667,14.83634 36.282,15.26252 36.32,15.29214 C36.732667,15.61665 37.562,15.68735 37.92,16.42323 C38.482,17.57788 38.454667,20.85602 39.68,20.62442 L39.68,20.62442 L39.68,20.62442 Z M5.6,8.5056 C5.984667,9.70065 7.115333,11.10711 7.36,12.06046 C7.409333,12.25368 7.06,12.38632 7.2,12.70679 C7.437333,13.24877 7.996667,13.35515 8.16,13.99947 C8.978667,17.2224 10.478,20.45206 12,23.53293 C12.51,24.56572 13.196667,25.84762 13.6,26.9262 C13.932,27.81357 14.028,27.68497 14.4,28.21887 C15.317333,29.53376 15.54,31.35428 16.32,32.90481 C16.623333,33.50739 17.272,33.92279 17.6,34.52065 C18.376,35.93452 18.886667,37.44331 19.84,38.72184 C20.086667,38.27075 20.49,37.81697 20.96,37.26758 C21.400667,36.75254 22.525333,35.85103 22.56,35.81333 C23.507333,34.79535 24.024,33.71677 24.48,32.58164 C24.502667,32.52442 24.780667,32.75804 24.8,32.74323 C24.88,32.68331 24.544667,32.41804 24.64,32.25848 C24.773333,32.03428 26.101333,30.45345 26.4,30.31947 C27.537333,29.80913 27.672,30.4696 28.32,30.64263 C29.006,30.82576 29.712667,30.45277 30.08,30.80422 C30.273333,30.98869 30.186667,31.9077 30.4,32.58164 C31.007333,34.50315 32.437333,37.8641 33.12,38.72184 C33.382667,39.05174 33.284,38.81677 33.44,39.52976 C33.738667,40.89448 35.023333,42.51234 35.68,44.05412 C36.524667,46.03622 37.712667,48.34687 38.4,50.51749 C38.955333,52.27202 39.246,54.02454 39.84,55.36501 C40.226667,56.23757 40.230667,57.07915 40.64,57.78877 C43.025333,55.95008 47.746,53.1237 50.88,51.32541 C52.138667,50.60366 53.71,49.49075 54.56,49.3864 C55.450667,49.27733 57.62,50.37341 56.16,51.16382 C56.749333,53.29269 58.153333,54.15582 59.36,55.52659 C61.252,57.67566 62.927333,60.11895 64.96,61.82838 C64.369333,58.47416 63.093333,56.16687 61.92,52.77966 C61.806,52.45178 61.741333,51.34157 61.6,51.00224 C61.381333,50.47844 60.638667,49.49883 60.32,48.57848 C59.733333,46.88117 59.416667,45.38719 58.72,43.56937 C58.459333,42.88802 57.232,40.4757 57.28,40.49927 C56.600667,40.16869 54.066,41.3597 53.12,41.95353 C51.126667,43.20513 48.086667,45.31784 46.4,45.99313 C45.997333,46.15404 45.254,46.15202 44.8,46.3163 C44.198667,46.53376 43.036667,47.59147 42.08,47.12422 C41.534,46.8576 41.928667,46.06921 41.76,45.66996 C41.682,45.48616 41.232,45.21349 41.12,45.02362 C40.857333,44.57658 40.659333,44.15309 40.48,43.73095 C38.554,39.19919 37.789333,34.29309 36,29.83471 C35.02,27.39277 33.983333,24.15974 33.76,22.07867 C33.661333,21.15562 33.827333,20.17602 33.6,19.17016 C33.031333,20.08244 32.273333,20.35107 31.52,20.94758 C29.837333,22.27998 27.440667,24.76568 26.24,26.11828 C25.397333,27.06826 25.034667,28.30101 23.52,27.8957 C23.276,27.8304 23.148,27.41432 22.88,27.41095 C22.712,27.40893 22.504667,27.94485 22.4,27.8957 C21.856,27.63919 20.638,25.65844 20,24.8256 C19.211333,23.79618 18.540667,22.52842 17.76,21.59392 C16.638,20.25008 15.138667,19.1237 14.24,18.03907 C12.557333,16.0085 11.444,13.52751 9.76,11.5757 C7.926667,9.4502 6.176,7.56101 4.64,5.92026 C5.322,6.64739 5.362,7.76434 5.6,8.5056 L5.6,8.5056 L5.6,8.5056 Z" id="Imported-Layers"></path>
                </g>
            </g>
        </g>
    </g>
</svg>