<?xml version="1.0" encoding="UTF-8" standalone="no"?>
<svg width="70px" height="68px" viewBox="0 0 70 68" version="1.1" xmlns="http://www.w3.org/2000/svg" xmlns:xlink="http://www.w3.org/1999/xlink" xmlns:sketch="http://www.bohemiancoding.com/sketch/ns">
    <!-- Generator: Sketch 3.1 (8751) - http://www.bohemiancoding.com/sketch -->
    <title>Imported Layers</title>
    <desc>Created with Sketch.</desc>
    <defs></defs>
    <g id="Page-1" stroke="none" stroke-width="1" fill="none" fill-rule="evenodd" sketch:type="MSPage">
        <g id="Main-Page" sketch:type="MSArtboardGroup" transform="translate(-299.000000, -1530.000000)" fill="#000000">
            <path d="M338.68,1550.62442 C338.73,1551.95816 340.289333,1557.15242 341.08,1560.64263 C341.740667,1563.55788 342.363333,1565.22489 343.16,1568.39867 C343.348,1569.146 344.217333,1571.07491 344.44,1572.11511 C344.862,1574.08644 344.605333,1573.93226 346.52,1572.92303 C348.716,1571.76568 351.743333,1569.48398 354.04,1568.56026 C354.585333,1568.34077 355.147333,1568.48687 355.48,1568.23709 C355.834,1567.97115 355.469333,1567.75099 355.8,1567.26758 C356.401333,1566.38762 358.912,1565.73994 359.64,1566.1365 C359.556667,1566.09139 360.918667,1567.58873 360.92,1567.59075 C361.246,1568.07685 361.290667,1569.05646 361.4,1569.36818 C361.29,1569.05444 361.74,1569.96739 361.56,1569.85293 C362.018667,1570.14513 361.780667,1569.34327 361.72,1569.85293 C361.633333,1570.58343 362.300667,1571.5765 362.52,1572.43828 C363.062,1574.5685 364.080667,1578.65725 364.76,1581.00224 C364.855333,1581.33079 364.977333,1581.78996 365.08,1581.97174 C365.228,1582.23499 365.654667,1582.26192 365.72,1582.4565 C365.792667,1582.67531 365.528667,1583.22065 365.56,1583.426 C365.671333,1584.1565 366.100667,1585.15697 366.36,1586.01135 C367.012667,1588.16042 367.811333,1590.75586 368.12,1592.31313 C368.236667,1592.90089 368.450667,1594.34842 368.28,1594.73689 C368.497333,1594.24339 367.741333,1595.10517 367.32,1595.22164 C367.692667,1595.53673 367.714,1596.84287 367.8,1596.19115 C368.264667,1597.24481 367.162667,1596.58838 367.32,1596.51432 C366.984,1596.67186 366.484667,1597.58885 365.24,1597.16065 C364.05,1596.75063 362.772667,1594.24137 361.72,1593.12105 C359.977333,1591.26687 357.554667,1588.85254 356.12,1587.14244 C355.464,1586.3601 354.156667,1584.89844 353.88,1584.88026 C353.296667,1584.84188 350.542,1587.41713 348.92,1588.27353 C347.484,1589.03162 345.78,1589.9136 344.92,1590.69729 C343.772,1591.7422 340.297333,1594.22858 339.32,1591.34362 C338.818667,1591.45539 339.111333,1591.77452 339.16,1592.15155 C338.729333,1592.14077 338.390667,1591.78192 338.68,1591.50521 C338.172667,1591.85463 338.184667,1592.72921 337.08,1592.47471 C336.639333,1592.18319 337.806,1592.13269 337.56,1592.31313 C337.149333,1592.61408 338.178667,1591.15376 338.04,1591.82838 C338.2,1591.05008 337.595333,1590.84271 337.56,1590.69729 C337.500667,1590.4502 337.723333,1590.25966 337.72,1590.05095 C337.698667,1588.62026 336.462667,1587.46291 335.96,1586.17293 C335.752,1585.64038 335.861333,1584.89372 335.64,1584.39551 C335.362667,1583.77004 335.073333,1583.13313 334.84,1582.61808 C334.696,1582.3003 334.510667,1581.60145 334.36,1581.32541 C334.354667,1581.31598 333.885333,1581.17931 333.88,1581.16382 C333.678667,1580.56933 334.088,1580.1216 333.88,1579.87115 C333.222667,1579.08006 333.229333,1578.2378 332.28,1576.96263 C332.260667,1576.63475 332.751333,1576.99226 332.76,1576.96263 C332.726667,1577.07776 332.575333,1576.07796 332.44,1575.83155 C332.328667,1575.62889 331.789333,1575.48077 331.8,1575.50838 C331.637333,1575.09499 331.764,1574.47895 331.64,1574.05412 C330.576667,1570.41444 328.162,1567.42984 327.32,1564.35907 C327.452,1565.05119 326.935333,1564.73341 326.52,1565.16699 C326.329333,1565.36628 326.592,1565.71772 326.52,1565.81333 C326.336,1566.05705 326.39,1565.67935 326.2,1565.81333 C324.598,1566.9397 323.447333,1570.73087 322.36,1571.46877 C320.802667,1572.52513 320.576,1571.44454 319.48,1571.46877 C318.213333,1571.49705 318.084667,1571.99123 317.24,1570.1761 C316.597333,1568.79388 315.131333,1566.69396 314.04,1564.68224 C311.393333,1559.80374 308.276,1554.12743 305.72,1547.55432 C305.525333,1547.05273 304.974667,1544.94675 304.6,1543.99947 C303.586,1541.43701 302.410667,1538.81059 301.56,1536.24343 C301.421333,1535.826 300.959333,1535.72232 300.76,1535.27392 C300.585333,1534.88073 300.476,1533.5618 300.44,1533.17333 C300.441333,1533.1841 300.217333,1533.35444 300.28,1533.4965 C299.82,1532.44822 299.017333,1530.54893 299,1530.58798 C299.238667,1530.0561 302.17,1529.86018 302.84,1530.10323 C304.587333,1530.73745 306.671333,1534.0001 308.28,1535.92026 C310.419333,1538.47396 311.9,1540.86339 313.72,1543.19155 C313.84,1543.34572 313.772,1543.45614 313.88,1543.6763 C314.256667,1544.44248 315.492667,1545.1144 316.12,1545.77689 C316.196667,1545.85836 316.038667,1546.18624 316.12,1546.26164 C316.254,1546.38553 316.624667,1546.29261 316.76,1546.42323 C317.016,1546.67099 316.980667,1547.1719 317.24,1547.39273 C317.626667,1547.72129 318.309333,1547.71388 318.68,1548.03907 C319.956667,1549.15804 321.876,1551.55622 322.84,1552.72501 C323.108667,1553.05087 323.403333,1554.25467 324.28,1554.17927 C324.861333,1554.12945 326.704667,1551.53198 327.64,1550.62442 C328.888667,1549.41321 330.362667,1547.91856 331.16,1547.23115 C331.248667,1547.1544 331.557333,1547.31396 331.64,1547.23115 C332.076,1546.7942 332.088667,1546.15729 332.76,1545.93848 C333.074,1545.83614 333.071333,1545.29753 333.08,1545.29214 C333.787333,1544.83095 334.938667,1544.65927 335.48,1544.80739 C335.586667,1544.83634 335.282,1545.26252 335.32,1545.29214 C335.732667,1545.61665 336.562,1545.68735 336.92,1546.42323 C337.482,1547.57788 337.454667,1550.85602 338.68,1550.62442 L338.68,1550.62442 Z M304.6,1538.5056 C304.984667,1539.70065 306.115333,1541.10711 306.36,1542.06046 C306.409333,1542.25368 306.06,1542.38632 306.2,1542.70679 C306.437333,1543.24877 306.996667,1543.35515 307.16,1543.99947 C307.978667,1547.2224 309.478,1550.45206 311,1553.53293 C311.51,1554.56572 312.196667,1555.84762 312.6,1556.9262 C312.932,1557.81357 313.028,1557.68497 313.4,1558.21887 C314.317333,1559.53376 314.54,1561.35428 315.32,1562.90481 C315.623333,1563.50739 316.272,1563.92279 316.6,1564.52065 C317.376,1565.93452 317.886667,1567.44331 318.84,1568.72184 C319.086667,1568.27075 319.49,1567.81697 319.96,1567.26758 C320.400667,1566.75254 321.525333,1565.85103 321.56,1565.81333 C322.507333,1564.79535 323.024,1563.71677 323.48,1562.58164 C323.502667,1562.52442 323.780667,1562.75804 323.8,1562.74323 C323.88,1562.68331 323.544667,1562.41804 323.64,1562.25848 C323.773333,1562.03428 325.101333,1560.45345 325.4,1560.31947 C326.537333,1559.80913 326.672,1560.4696 327.32,1560.64263 C328.006,1560.82576 328.712667,1560.45277 329.08,1560.80422 C329.273333,1560.98869 329.186667,1561.9077 329.4,1562.58164 C330.007333,1564.50315 331.437333,1567.8641 332.12,1568.72184 C332.382667,1569.05174 332.284,1568.81677 332.44,1569.52976 C332.738667,1570.89448 334.023333,1572.51234 334.68,1574.05412 C335.524667,1576.03622 336.712667,1578.34687 337.4,1580.51749 C337.955333,1582.27202 338.246,1584.02454 338.84,1585.36501 C339.226667,1586.23757 339.230667,1587.07915 339.64,1587.78877 C342.025333,1585.95008 346.746,1583.1237 349.88,1581.32541 C351.138667,1580.60366 352.71,1579.49075 353.56,1579.3864 C354.450667,1579.27733 356.62,1580.37341 355.16,1581.16382 C355.749333,1583.29269 357.153333,1584.15582 358.36,1585.52659 C360.252,1587.67566 361.927333,1590.11895 363.96,1591.82838 C363.369333,1588.47416 362.093333,1586.16687 360.92,1582.77966 C360.806,1582.45178 360.741333,1581.34157 360.6,1581.00224 C360.381333,1580.47844 359.638667,1579.49883 359.32,1578.57848 C358.733333,1576.88117 358.416667,1575.38719 357.72,1573.56937 C357.459333,1572.88802 356.232,1570.4757 356.28,1570.49927 C355.600667,1570.16869 353.066,1571.3597 352.12,1571.95353 C350.126667,1573.20513 347.086667,1575.31784 345.4,1575.99313 C344.997333,1576.15404 344.254,1576.15202 343.8,1576.3163 C343.198667,1576.53376 342.036667,1577.59147 341.08,1577.12422 C340.534,1576.8576 340.928667,1576.06921 340.76,1575.66996 C340.682,1575.48616 340.232,1575.21349 340.12,1575.02362 C339.857333,1574.57658 339.659333,1574.15309 339.48,1573.73095 C337.554,1569.19919 336.789333,1564.29309 335,1559.83471 C334.02,1557.39277 332.983333,1554.15974 332.76,1552.07867 C332.661333,1551.15562 332.827333,1550.17602 332.6,1549.17016 C332.031333,1550.08244 331.273333,1550.35107 330.52,1550.94758 C328.837333,1552.27998 326.440667,1554.76568 325.24,1556.11828 C324.397333,1557.06826 324.034667,1558.30101 322.52,1557.8957 C322.276,1557.8304 322.148,1557.41432 321.88,1557.41095 C321.712,1557.40893 321.504667,1557.94485 321.4,1557.8957 C320.856,1557.63919 319.638,1555.65844 319,1554.8256 C318.211333,1553.79618 317.540667,1552.52842 316.76,1551.59392 C315.638,1550.25008 314.138667,1549.1237 313.24,1548.03907 C311.557333,1546.0085 310.444,1543.52751 308.76,1541.5757 C306.926667,1539.4502 305.176,1537.56101 303.64,1535.92026 C304.322,1536.64739 304.362,1537.76434 304.6,1538.5056 L304.6,1538.5056 Z" id="Imported-Layers" sketch:type="MSShapeGroup"></path>
        </g>
    </g>
</svg>